<svg width="12" height="12" viewBox="0 0 12 12" fill="none" xmlns="http://www.w3.org/2000/svg">
<circle cx="6" cy="6" r="5.5" fill="#FFFBF3" stroke="#3793D8"/>
<path d="M8.57235 4.11148C8.50657 4.06501 8.43237 4.03208 8.35399 4.01457C8.27561 3.99706 8.19458 3.99531 8.11553 4.00943C8.03647 4.02355 7.96095 4.05325 7.89327 4.09685C7.82559 4.14044 7.76709 4.19707 7.72109 4.2635L5.39719 7.61452L3.87347 6.5636C3.75126 6.47919 3.60085 6.44726 3.45533 6.47483C3.3098 6.5024 3.18109 6.58721 3.09749 6.7106C3.0139 6.83399 2.98227 6.98586 3.00958 7.1328C3.03688 7.27973 3.12088 7.4097 3.24308 7.4941L5.28555 8.90271C5.34845 8.94606 5.41954 8.97584 5.49437 8.99019C5.5692 9.00453 5.64615 9.00314 5.72042 8.98608C5.79963 8.9721 5.87534 8.94247 5.94319 8.89889C6.01104 8.85531 6.0697 8.79863 6.11582 8.73212L8.723 4.97146C8.81592 4.83717 8.85224 4.67113 8.82397 4.50982C8.7957 4.34852 8.70517 4.20514 8.57225 4.1112" fill="#3793D8"/>
</svg>
