<svg width="50" height="50" viewBox="0 0 50 50" fill="none" xmlns="http://www.w3.org/2000/svg">
<path d="M50 6.25C50 4.59239 49.3415 3.00268 48.1694 1.83058C46.9973 0.658477 45.4076 -3.96966e-06 43.75 -3.82475e-06L6.25 -5.46392e-07C4.59239 -4.0148e-07 3.00268 0.658481 1.83058 1.83058C0.658476 3.00269 -3.96966e-06 4.5924 -3.82475e-06 6.25L-5.46392e-07 43.75C-4.0148e-07 45.4076 0.65848 46.9973 1.83058 48.1694C3.00268 49.3415 4.5924 50 6.25 50L43.75 50C45.4076 50 46.9973 49.3415 48.1694 48.1694C49.3415 46.9973 50 45.4076 50 43.75L50 6.25ZM35.9375 26.5625L17.8344 26.5625L24.5437 33.2687C24.8371 33.5621 25.002 33.9601 25.002 34.375C25.002 34.7899 24.8371 35.1879 24.5437 35.4812C24.2504 35.7746 23.8524 35.9395 23.4375 35.9395C23.0226 35.9395 22.6246 35.7746 22.3312 35.4812L12.9562 26.1062C12.8107 25.9611 12.6953 25.7887 12.6165 25.5989C12.5378 25.409 12.4972 25.2055 12.4972 25C12.4972 24.7945 12.5378 24.591 12.6165 24.4011C12.6953 24.2113 12.8107 24.0389 12.9562 23.8937L22.3312 14.5187C22.6246 14.2254 23.0226 14.0605 23.4375 14.0605C23.8524 14.0605 24.2504 14.2254 24.5437 14.5187C24.8371 14.8121 25.002 15.2101 25.002 15.625C25.002 16.0399 24.8371 16.4379 24.5437 16.7312L17.8344 23.4375L35.9375 23.4375C36.3519 23.4375 36.7493 23.6021 37.0424 23.8951C37.3354 24.1882 37.5 24.5856 37.5 25C37.5 25.4144 37.3354 25.8118 37.0424 26.1049C36.7493 26.3979 36.3519 26.5625 35.9375 26.5625Z" fill="#EEAA2B"/>
</svg>
