<svg width="50" height="50" viewBox="0 0 50 50" fill="none" xmlns="http://www.w3.org/2000/svg">
<path d="M3.82475e-06 6.25C3.96966e-06 4.59239 0.658486 3.00268 1.83059 1.83058C3.00269 0.658477 4.5924 -3.96966e-06 6.25 -3.82475e-06L43.75 -5.46392e-07C45.4076 -4.0148e-07 46.9973 0.658481 48.1694 1.83059C49.3415 3.00269 50 4.5924 50 6.25L50 43.75C50 45.4076 49.3415 46.9973 48.1694 48.1694C46.9973 49.3415 45.4076 50 43.75 50L6.25 50C4.5924 50 3.00269 49.3415 1.83059 48.1694C0.658482 46.9973 4.0148e-07 45.4076 5.46392e-07 43.75L3.82475e-06 6.25ZM14.0625 26.5625L32.1656 26.5625L25.4563 33.2687C25.1629 33.5621 24.998 33.9601 24.998 34.375C24.998 34.7899 25.1629 35.1879 25.4563 35.4812C25.7496 35.7746 26.1476 35.9395 26.5625 35.9395C26.9774 35.9395 27.3754 35.7746 27.6688 35.4812L37.0438 26.1062C37.1893 25.9611 37.3047 25.7887 37.3835 25.5989C37.4622 25.409 37.5028 25.2055 37.5028 25C37.5028 24.7945 37.4623 24.591 37.3835 24.4011C37.3047 24.2113 37.1893 24.0389 37.0438 23.8937L27.6688 14.5187C27.3754 14.2254 26.9774 14.0605 26.5625 14.0605C26.1476 14.0605 25.7496 14.2254 25.4563 14.5187C25.1629 14.8121 24.998 15.2101 24.998 15.625C24.998 16.0399 25.1629 16.4379 25.4563 16.7312L32.1656 23.4375L14.0625 23.4375C13.6481 23.4375 13.2507 23.6021 12.9576 23.8951C12.6646 24.1882 12.5 24.5856 12.5 25C12.5 25.4144 12.6646 25.8118 12.9576 26.1049C13.2507 26.3979 13.6481 26.5625 14.0625 26.5625Z" fill="#EEAA2B"/>
</svg>
